<svg xmlns:dc="http://purl.org/dc/elements/1.1/" xmlns:cc="http://creativecommons.org/ns#" xmlns:rdf="http://www.w3.org/1999/02/22-rdf-syntax-ns#" xmlns:svg="http://www.w3.org/2000/svg" xmlns="http://www.w3.org/2000/svg" xmlns:sodipodi="http://sodipodi.sourceforge.net/DTD/sodipodi-0.dtd" xmlns:inkscape="http://www.inkscape.org/namespaces/inkscape" width="71.838257mm" height="34.592617mm" viewBox="0 0 254.545 122.57227" id="svg5389" version="1.1" inkscape:version="0.91 r13725" sodipodi:docname="logo-black-simple.svg">
  <defs id="defs5391"/>
  <sodipodi:namedview id="base" pagecolor="#d0d0d0" bordercolor="#666666" borderopacity="1.0" inkscape:pageopacity="0" inkscape:pageshadow="2" inkscape:zoom="3.959798" inkscape:cx="143.59217" inkscape:cy="-20.662522" inkscape:document-units="px" inkscape:current-layer="g6283" showgrid="false" fit-margin-top="0" fit-margin-left="0" fit-margin-right="0" fit-margin-bottom="0" inkscape:window-width="2880" inkscape:window-height="1539" inkscape:window-x="0" inkscape:window-y="41" inkscape:window-maximized="1"/>
  <metadata id="metadata5394">
    <rdf:RDF>
      <cc:Work rdf:about="">
        <dc:format>image/svg+xml</dc:format>
        <dc:type rdf:resource="http://purl.org/dc/dcmitype/StillImage"/>
        <dc:title/>
      </cc:Work>
    </rdf:RDF>
  </metadata>
  <g inkscape:label="Livello 1" inkscape:groupmode="layer" id="layer1" transform="translate(-195.58464,-630.64714)">
    <g id="g6283" style="fill:#e4142c;fill-opacity:1">
      <g id="g6389" style="fill:#000000;fill-opacity:1">
        <path inkscape:connector-curvature="0" style="fill:#000000;fill-opacity:1" d="m 220.26764,688.71114 0,33.214 -24.661,0 0,-91.277 29.905,0 c 24.807,0 37.21,8.991 37.21,26.972 0,10.572 -5.161,18.751 -15.483,24.536 l 30.765,39.77 -27.97,0 -23.522,-33.214 -6.244,0 z m 0,-18.543 4.62,0 c 8.615,0 12.924,-3.809 12.924,-11.425 0,-6.285 -4.226,-9.428 -12.674,-9.428 l -4.87,0 0,20.853 z" id="path5025"/>
        <path inkscape:connector-curvature="0" style="fill:#000000;fill-opacity:1" d="m 357.91464,721.92414 -65.064,0 0,-91.277 65.064,0 0,19.792 -40.402,0 0,14.359 27.346,0 0,19.791 -27.346,0 0,17.231 40.402,0 0,20.104 z" id="path5027"/>
        <path inkscape:connector-curvature="0" style="fill:#000000;fill-opacity:1" d="m 450.12964,674.35014 c 0,15.234 -4.194,26.972 -12.58,35.213 -8.388,8.241 -20.177,12.361 -35.369,12.361 l -29.53,0 0,-91.277 31.591,0 c 14.65,0 25.962,3.746 33.933,11.238 7.969,7.493 11.955,18.315 11.955,32.465 z m -25.598,0.874 c 0,-8.365 -1.654,-14.567 -4.964,-18.604 -3.309,-4.037 -8.335,-6.056 -15.077,-6.056 l -7.18,0 0,51.132 5.494,0 c 7.492,0 12.986,-2.175 16.482,-6.523 3.497,-4.35 5.245,-10.999 5.245,-19.949 z" id="path5029"/>
        <g style="fill:#000000;fill-opacity:1" transform="translate(77.114643,976.98614)" id="g5047"/>
        <path inkscape:connector-curvature="0" style="fill:#000000;fill-opacity:1" d="m 195.58464,728.63737 0,24.58204 254.54492,0 0,-24.58204 -254.54492,0 z m 27.83594,4.30665 c 2.326,0 4.12448,0.69484 5.39648,2.08984 1.268,1.394 1.90235,3.35762 1.90235,5.89062 0,2.526 -0.63716,4.48863 -1.91016,5.89063 -1.273,1.4 -3.07716,2.10156 -5.41016,2.10156 -2.362,0 -4.17736,-0.69494 -5.44336,-2.08594 -1.268,-1.391 -1.89843,-3.36573 -1.89843,-5.92773 0,-2.562 0.63715,-4.52739 1.91015,-5.90039 1.275,-1.373 3.09113,-2.0586 5.45313,-2.05859 z m -16.30664,0.0215 c 1.498,0 2.98961,0.32456 4.47461,0.97656 l -0.8125,2.06836 c -1.393,-0.58 -2.63361,-0.86914 -3.72461,-0.86914 -0.828,0 -1.45872,0.17816 -1.88672,0.53516 -0.428,0.357 -0.64063,0.82901 -0.64063,1.41601 0,0.403 0.0839,0.74816 0.25586,1.03516 0.172,0.286 0.45466,0.5585 0.84766,0.8125 0.393,0.254 1.09719,0.58981 2.11719,1.00781 1.148,0.474 1.99039,0.91813 2.52539,1.32813 0.535,0.41 0.92773,0.87267 1.17773,1.38867 0.251,0.516 0.37695,1.12517 0.37695,1.82617 0,1.38 -0.50376,2.46305 -1.50976,3.24805 -1.006,0.786 -2.39606,1.17773 -4.16406,1.17773 -1.771,0 -3.21771,-0.27141 -4.34571,-0.81641 l 0,-2.39843 c 0.715,0.332 1.47144,0.59415 2.27344,0.78515 0.802,0.191 1.55019,0.28711 2.24219,0.28711 1.014,0 1.76119,-0.19122 2.24219,-0.57422 0.482,-0.382 0.72265,-0.8941 0.72265,-1.53711 0,-0.58 -0.22206,-1.07256 -0.66406,-1.47656 -0.442,-0.404 -1.35328,-0.88159 -2.73828,-1.43359 -1.427,-0.573 -2.43553,-1.22689 -3.01953,-1.96289 -0.586,-0.736 -0.87696,-1.6213 -0.87696,-2.6543 0,-1.295 0.46458,-2.31264 1.39258,-3.05664 0.928,-0.744 2.17138,-1.11328 3.73438,-1.11328 z m 138.29882,0 c 1.498,0 2.99157,0.32456 4.47657,0.97656 l -0.81446,2.06836 c -1.391,-0.58 -2.6326,-0.86914 -3.72461,-0.86914 -0.82798,0 -1.45481,0.17816 -1.88281,0.53516 -0.429,0.357 -0.64453,0.82901 -0.64453,1.41601 0,0.403 0.0859,0.74816 0.25586,1.03516 0.172,0.286 0.45366,0.5585 0.84766,0.8125 0.392,0.254 1.10014,0.58981 2.11914,1.00781 1.149,0.474 1.99039,0.91813 2.52539,1.32813 0.535,0.41 0.92873,0.87267 1.17773,1.38867 0.251,0.516 0.375,1.12517 0.375,1.82617 0,1.38 -0.50181,2.46305 -1.50781,3.24805 -1.007,0.786 -2.39506,1.17773 -4.16406,1.17773 -1.769,0 -3.21871,-0.27141 -4.34571,-0.81641 l 0,-2.39843 c 0.713,0.332 1.47144,0.59415 2.27344,0.78515 0.802,0.191 1.55019,0.28711 2.24219,0.28711 1.013,0 1.76019,-0.19122 2.24219,-0.57422 0.48,-0.382 0.72265,-0.8941 0.72265,-1.53711 0,-0.58 -0.22011,-1.07256 -0.66211,-1.47656 -0.443,-0.403 -1.35523,-0.88159 -2.74023,-1.43359 -1.428,-0.573 -2.43453,-1.22689 -3.01953,-1.96289 -0.585,-0.736 -0.87891,-1.6213 -0.87891,-2.6543 0,-1.295 0.46553,-2.31264 1.39453,-3.05664 0.926,-0.743 2.17043,-1.11328 3.73242,-1.11328 z m 28.97266,0 c 1.498,0 2.98866,0.32456 4.47266,0.97656 l -0.8125,2.06836 c -1.392,-0.58 -2.63261,-0.86914 -3.72461,-0.86914 -0.828,0 -1.45677,0.17816 -1.88477,0.53516 -0.429,0.357 -0.64258,0.82901 -0.64258,1.41601 0,0.403 0.0868,0.74816 0.25782,1.03516 0.172,0.286 0.4527,0.5585 0.8457,0.8125 0.393,0.254 1.10014,0.58981 2.11914,1.00781 1.148,0.474 1.99039,0.91813 2.52539,1.32813 0.536,0.41 0.92874,0.87267 1.17774,1.38867 0.251,0.516 0.375,1.12517 0.375,1.82617 0,1.38 -0.50082,2.46305 -1.50782,3.24805 -1.007,0.786 -2.39606,1.17773 -4.16406,1.17773 -1.771,0 -3.21966,-0.27141 -4.34766,-0.81641 l 0,-2.39843 c 0.714,0.332 1.47339,0.59415 2.27539,0.78515 0.80201,0.191 1.55119,0.28711 2.24219,0.28711 1.014,0 1.76119,-0.19122 2.24219,-0.57422 0.481,-0.382 0.72266,-0.8941 0.72266,-1.53711 0,-0.58 -0.22207,-1.07256 -0.66407,-1.47656 -0.442,-0.404 -1.35523,-0.88159 -2.74023,-1.43359 -1.427,-0.573 -2.43158,-1.22689 -3.01758,-1.96289 -0.585,-0.736 -0.87695,-1.6213 -0.87695,-2.6543 0,-1.295 0.46262,-2.31264 1.39062,-3.05664 0.927,-0.743 2.17433,-1.11328 3.73633,-1.11328 z m 64.8125,0 c 1.499,0 2.98961,0.32456 4.47461,0.97656 l -0.81445,2.06836 c -1.392,-0.58 -2.63161,-0.86914 -3.72461,-0.86914 -0.828,0 -1.45677,0.17816 -1.88477,0.53516 -0.428,0.357 -0.64258,0.82901 -0.64258,1.41601 0,0.403 0.0858,0.74816 0.25782,1.03516 0.17,0.286 0.4537,0.5585 0.8457,0.8125 0.392,0.254 1.09914,0.58981 2.11914,1.00781 1.149,0.474 1.99039,0.91813 2.52539,1.32813 0.535,0.41 0.92774,0.87267 1.17774,1.38867 0.25,0.516 0.375,1.12517 0.375,1.82617 0,1.38 -0.50082,2.46305 -1.50782,3.24805 -1.006,0.786 -2.39506,1.17773 -4.16406,1.17773 -1.769,0 -3.2177,-0.27141 -4.3457,-0.81641 l 0,-2.39843 c 0.713,0.332 1.47144,0.59415 2.27343,0.78515 0.80201,0.191 1.55019,0.28711 2.24219,0.28711 1.014,0 1.76019,-0.19122 2.24219,-0.57422 0.482,-0.382 0.72266,-0.8941 0.72266,-1.53711 0,-0.58 -0.22107,-1.07256 -0.66407,-1.47656 -0.442,-0.403 -1.35328,-0.88159 -2.73828,-1.43359 -1.427,-0.573 -2.43553,-1.22689 -3.01953,-1.96289 -0.586,-0.736 -0.87695,-1.6213 -0.87695,-2.6543 0,-1.295 0.46458,-2.31264 1.39258,-3.05664 0.928,-0.744 2.17137,-1.11328 3.73437,-1.11328 z m -148.63086,0.1582 2.78516,0 5.85351,15.58008 -2.7207,0 -1.56055,-4.30859 -5.98437,0 -1.5293,4.30859 -2.69726,0 5.85351,-15.58008 z m -54.51367,0.0625 8.83008,0 0,2.14453 -6.29297,0 0,4.85157 5.89844,0 0,2.15429 -5.89844,0 0,6.36719 -2.53711,0 0,-15.51758 z m 11.88477,0 11.76367,0 0,2.17774 -4.60352,0 0,13.33984 -2.55859,0 0,-13.33984 -4.60156,0 0,-2.17774 z m 14.19726,0 2.60938,0 2.23828,9.04297 c 0.34999,1.45 0.59904,2.73275 0.74804,3.84375 0.079,-0.602 0.19747,-1.27358 0.35547,-2.01758 0.158,-0.744 0.29874,-1.34368 0.42774,-1.80468 l 2.54687,-9.06446 2.53711,0 2.61133,9.10742 c 0.25,0.842 0.51497,2.10135 0.79297,3.77735 0.107,-1.012 0.36253,-2.30028 0.76953,-3.86328 l 2.22656,-9.02149 2.5918,0 -4.08008,15.51758 -2.7832,0 -2.6543,-9.25391 c -0.113,-0.403 -0.25573,-0.98609 -0.42773,-1.74609 -0.172,-0.762 -0.27455,-1.28894 -0.31055,-1.58594 -0.071,0.452 -0.18766,1.03972 -0.34766,1.76172 -0.16,0.722 -0.29339,1.25928 -0.40039,1.61328 l -2.59179,9.21094 -2.78125,0 -2.02344,-7.76953 -2.05469,-7.74805 z m 41.10742,0 4.41992,0 c 2.02,0 3.51633,0.375 4.48633,1.125 0.97,0.75 1.45508,1.88249 1.45508,3.39649 0,1.932 -1.01501,3.3079 -3.04101,4.1289 l 4.42187,6.86719 -2.91211,0 -3.74609,-6.19922 -2.52539,0 0,0.002 0,6.19726 -2.5586,0 0,-15.51758 z m 15.98438,0 8.85156,0 0,2.14453 -6.29492,0 0,4.22461 5.89844,0 0,2.12305 -5.89844,0 0,4.87109 6.29492,0 0,2.1543 -8.85156,0 0,-15.51758 z m 33.83398,0 2.78321,0 3.70312,7.08008 3.70313,-7.08008 2.7832,0 -5.21289,9.5 0,6.01758 -2.56836,0 0,-5.93359 -5.19141,-9.58399 z m 29.2793,0 11.76367,0 0,2.17774 -4.60156,0 0,13.33984 -2.55859,0 0,-13.33984 -4.60352,0 0,-2.17774 z m 16.13476,0 8.85157,0 0,2.14453 -6.29297,0 0,4.22461 5.89648,0 0,2.12305 -5.89648,0 0,4.87109 6.29297,0 0,2.1543 -8.85157,0 0,-15.51758 z m 14.20899,0 3.60547,0 4.34765,12.34571 0.0625,0 4.47461,-12.34571 3.61719,0 0,15.51758 -2.46289,0 0,-7.67187 c 0,-0.771 0.0226,-1.77663 0.0605,-3.01563 0.039,-1.238 0.0735,-1.988 0.10351,-2.25 l -0.0879,0 -4.69726,12.9375 -2.26172,0 -4.53711,-12.95898 -0.0859,0 c 0.121,1.925 0.18359,3.73006 0.1836,5.41406 l 0,7.54492 -2.32227,0 0,-15.51758 z m -189.26367,1.93164 c -1.534,0 -2.69161,0.49257 -3.47461,1.47657 -0.781,0.984 -1.17188,2.42707 -1.17188,4.33007 0,1.91 0.39002,3.35871 1.16602,4.34571 0.779,0.988 1.93298,1.48047 3.45898,1.48047 1.521,0 2.66741,-0.48785 3.44141,-1.46485 0.774,-0.977 1.16016,-2.43033 1.16016,-4.36133 0,-1.903 -0.3844,-3.34707 -1.1504,-4.33007 -0.768,-0.983 -1.90868,-1.47657 -3.42968,-1.47657 z m 68.52734,0.19141 c -0.193,0.87 -0.47665,1.82247 -0.84765,2.85547 l -1.41211,4.04297 4.56054,0 -1.46679,-4.22266 c -0.107,-0.282 -0.25536,-0.72989 -0.44336,-1.33789 -0.189,-0.608 -0.31963,-1.05589 -0.39063,-1.33789 z m 13.85547,0.0215 0,5.07422 1.77539,0 c 1.191,0 2.05484,-0.2202 2.58984,-0.6582 0.535,-0.439 0.80274,-1.09013 0.80274,-1.95313 0,-0.878 -0.28919,-1.50667 -0.86719,-1.88867 -0.578,-0.382 -1.44833,-0.57422 -2.61133,-0.57422 l -1.68945,0 z" id="rect5079"/>
      </g>
    </g>
  </g>
</svg>